# xmcd
#
# Track frame offsets: 
#        150
#        31755
#        57842
#
# Disc length: 1188 seconds
#
# Revision: 2
# Processed by: cddbd v1.5.2PL0 Copyright (c) Steve Scherf et al.
# Submitted via: ExactAudioCopyFreeDBPlugin 1.0
#
DISCID=1a04a203
DTITLE=長渕剛 - 人間
DYEAR=1900
DGENRE=Folk
TTITLE0=人間
TTITLE1=I love you
TTITLE2=人間 (オリジナル・カラオケ)
EXTD=
EXTT0=
EXTT1=
EXTT2=
PLAYORDER=
